
<svg width="179px" height="70px" viewBox="0 0 179 70" version="1.1" xmlns="http://www.w3.org/2000/svg" xmlns:xlink="http://www.w3.org/1999/xlink">
    <defs>
        <polygon id="path-1" points="0.0281102362 0.0795399306 178.495558 0.0795399306 178.495558 67.3469271 0.0281102362 67.3469271"></polygon>
    </defs>
    <g id="Page-1" stroke="none" stroke-width="1" fill="none" fill-rule="evenodd">
        <g id="Homepage-approved" transform="translate(-202.000000, -26.000000)">
            <g id="Main-navigation-CTA" transform="translate(202.000000, -94.000000)">
                <g id="ih-logo_blue" transform="translate(0.000000, 120.000000)">
                    <polyline id="Fill-1" fill="#144650" points="53.375 61.25 53.375 37.625 56.6420303 37.625 56.6420303 47.7505989 70.2334361 47.7505989 70.2334361 37.625 73.5 37.625 73.5 61.25 70.2334361 61.25 70.2334361 50.4131218 56.6420303 50.4131218 56.6420303 61.25 53.375 61.25"></polyline>
                    <path d="M85.2756914,59.6955971 C88.5926351,59.6955971 90.4562168,57.0761613 90.4562168,53.3938618 C90.4562168,49.6738387 88.5926351,47.0921265 85.2756914,47.0921265 C81.9953247,47.0921265 80.1687832,49.6738387 80.1687832,53.3938618 C80.1687832,57.0761613 81.9953247,59.6955971 85.2756914,59.6955971 Z M85.2756914,62.125 C80.5039964,62.125 77,58.5568145 77,53.3938618 C77,48.2309091 80.5039964,44.625 85.2756914,44.625 C90.0835004,44.625 93.625,48.2309091 93.625,53.3938618 C93.625,58.5568145 90.0835004,62.125 85.2756914,62.125 L85.2756914,62.125 Z" id="Fill-2" fill="#144650"></path>
                    <path d="M116.631999,44.625 C120.975616,44.625 122.5,47.54976 122.5,51.2154837 L122.5,61.25 L119.337176,61.25 L119.337176,51.47489 C119.337176,48.7718212 118.194243,47.0682026 115.64193,47.0682026 C113.279396,47.0682026 111.374508,48.9939724 111.374508,51.9559875 L111.374508,61.25 L108.211684,61.25 L108.211684,51.47489 C108.211684,48.7718212 107.068752,47.0682026 104.516438,47.0682026 C102.154377,47.0682026 100.286877,48.9939724 100.286877,51.9559875 L100.286877,61.25 L97.125,61.25 L97.125,45.0688423 L100.286877,45.0688423 L100.286877,47.9572671 C101.08764,45.994702 103.030389,44.625 105.583176,44.625 C108.554801,44.625 110.307771,46.0314973 111.031392,48.142163 C111.907877,46.1423429 113.965629,44.625 116.631999,44.625" id="Fill-3" fill="#144650"></path>
                    <path d="M138.471379,52.1032415 C138.355432,49.4456106 136.850994,47.0162077 133.649511,47.0162077 C130.602784,47.0162077 128.789792,49.3696917 128.4041,52.1032415 L138.471379,52.1032415 Z M141.672862,56.0892164 C140.82386,59.8474348 138.008549,62.125 133.804267,62.125 C128.789792,62.125 125.125,58.784571 125.125,53.6216183 C125.125,48.3827468 128.789792,44.625 133.649511,44.625 C139.011348,44.625 141.75,48.3827468 141.75,52.9006251 L141.75,54.1530502 L128.326962,54.1530502 C128.48076,57.3803083 130.83372,59.6578735 133.842596,59.6578735 C136.658387,59.6578735 138.317102,58.3285864 139.011348,55.7855411 L141.672862,56.0892164 L141.672862,56.0892164 Z" id="Fill-4" fill="#144650"></path>
                    <path d="M146.085625,55.8991836 C146.381125,58.4427005 148.117417,59.8097111 150.8875,59.8097111 C153.030333,59.8097111 154.618875,59.011856 154.618875,57.3416415 C154.618875,55.7855411 153.547458,55.2541092 151.552375,54.874515 L148.819,54.3808067 C145.790125,53.8870985 143.980417,52.5587546 143.980417,49.7115623 C143.980417,46.6743371 146.455,44.625 150.185917,44.625 C154.471125,44.625 156.982875,46.6743371 157.278375,50.5084743 L154.803333,50.6607836 C154.433958,48.1172667 152.91975,46.9402889 150.185917,46.9402889 C148.154125,46.9402889 146.824375,47.8895101 146.824375,49.4078869 C146.824375,50.7367024 147.637,51.419972 149.299417,51.7231758 L152.328291,52.216884 C155.57925,52.7865111 157.5,54.0394077 157.5,57.0384377 C157.5,60.341143 154.655583,62.125 150.8875,62.125 C146.861542,62.125 143.795041,60.1893053 143.5,56.0892164 L146.085625,55.8991836" id="Fill-5" fill="#144650"></path>
                    <polygon id="Fill-6" fill="#144650" points="1.75 23.625 5.25 23.625 5.25 0 1.75 0"></polygon>
                    <path d="M12.8065813,23.625 L9.625,23.625 L9.625,7.44428998 L12.8065813,7.44428998 L12.8065813,10.3321749 C13.6118581,8.37012408 15.8738715,7 18.3658959,7 C22.7361058,7 24.5,9.81383656 24.5,13.5903014 L24.5,23.625 L21.3179424,23.625 L21.3179424,13.8501605 C21.3179424,11.1471664 19.9759732,9.4435949 17.3306081,9.4435949 C14.8004866,9.4435949 12.8065813,11.3688515 12.8065813,14.3312446 L12.8065813,23.625" id="Fill-7" fill="#144650"></path>
                    <polyline id="Fill-8" fill="#144650" points="33.0357047 23.625 26.25 7 29.5297651 7 34.6568565 19.7826455 34.8076395 19.7826455 39.8214095 7 42.875 7 36.0892953 23.625 33.0357047 23.625"></polyline>
                    <path d="M45.5813953,23.625 L48.9595551,23.625 L48.9595551,7.23762791 L45.5813953,7.23762791 L45.5813953,23.625 Z M45.5,3.524722 L49,3.524722 L49,0 L45.5,0 L45.5,3.524722 Z" id="Fill-9" fill="#144650"></path>
                    <path d="M54.2106249,18.2738798 C54.5061248,20.8177997 56.2424167,22.184302 59.0129584,22.184302 C61.1553333,22.184302 62.7438752,21.3869399 62.7438752,19.7167704 C62.7438752,18.1602403 61.6724583,17.6288228 59.6778334,17.2497103 L56.9444586,16.7560154 C53.9151249,16.2623205 52.104958,14.9335408 52.104958,12.0864252 C52.104958,9.04975346 54.5799998,7 58.3109166,7 C62.5961252,7 65.107875,9.04975346 65.403375,12.8837874 L62.9287921,13.0356209 C62.5589582,10.4921726 61.0447503,9.31522647 58.3109166,9.31522647 C56.2791247,9.31522647 54.9493748,10.2644222 54.9493748,11.7832296 C54.9493748,13.1115377 55.7619998,13.7947889 57.4244166,14.0984561 L60.4537503,14.592151 C63.7042501,15.1617627 65.625,16.4141541 65.625,19.4131032 C65.625,22.7157196 62.7805832,24.5 59.0129584,24.5 C54.9860829,24.5 51.9205,22.563886 51.625,18.4643791 L54.2106249,18.2738798" id="Fill-10" fill="#144650"></path>
                    <path d="M69.2063836,23.625 L72.5845609,23.625 L72.5845609,7.23762791 L69.2063836,7.23762791 L69.2063836,23.625 Z M69.125,3.524722 L72.625,3.524722 L72.625,0 L69.125,0 L69.125,3.524722 Z" id="Fill-11" fill="#144650"></path>
                    <path d="M79.1855732,16.1808552 C79.1855732,19.8441231 81.4905073,21.9810293 84.4750473,21.9810293 C87.724765,21.9810293 89.5007517,19.5388507 89.5007517,15.7229467 C89.5007517,11.9065686 87.724765,9.46439006 84.4750473,9.46439006 C81.4905073,9.46439006 79.1855732,11.6012963 79.1855732,15.2266422 L79.1855732,16.1808552 Z M78.505498,24.0420915 L76.125,24.0420915 L76.125,0 L79.2611371,0 L79.2611371,10.8760375 C79.979229,8.81544936 82.0950186,6.90749734 85.1936085,6.90749734 C90.0672463,6.90749734 92.75,10.7997195 92.75,15.7229467 C92.75,20.6456999 90.0672463,24.5 85.1551225,24.5 C82.0950186,24.5 79.9412124,22.667892 79.1855732,20.5693818 L78.505498,24.0420915 L78.505498,24.0420915 Z" id="Fill-12" fill="#144650"></path>
                    <polygon id="Fill-13" fill="#144650" points="96.25 23.625 99.75 23.625 99.75 0 96.25 0"></polygon>
                    <g id="Group-17" transform="translate(0.000000, 2.625000)">
                        <mask id="mask-2" fill="white">
                            <use xlink:href="#path-1"></use>
                        </mask>
                        <g id="Clip-15"></g>
                        <path d="M115.731717,11.9473655 C115.618807,9.31038281 114.147705,6.89985503 111.016693,6.89985503 C108.037476,6.89985503 106.264657,9.23505382 105.887512,11.9473655 L115.731717,11.9473655 Z M118.86226,15.9023715 C118.032539,19.6309227 115.279142,21.8912604 111.16802,21.8912604 C106.264657,21.8912604 102.681539,18.5767847 102.681539,13.4534774 C102.681539,8.25577691 106.264657,4.52675781 111.016693,4.52675781 C116.25972,4.52675781 118.937689,8.25577691 118.937689,12.7380859 L118.937689,13.9807804 L105.812083,13.9807804 C105.962941,17.1829644 108.263295,19.4428342 111.205969,19.4428342 C113.958898,19.4428342 115.580858,18.1243429 116.25972,15.6005877 L118.86226,15.9023715 L118.86226,15.9023715 Z" id="Fill-14" fill="#144650" mask="url(#mask-2)"></path>
                        <path d="M178.154244,28.5581102 L161.876075,12.2004896 L161.876075,1.24924479 C161.876075,0.604503472 161.350882,0.0795399306 160.704815,0.0795399306 L153.005421,0.0795399306 C152.359823,0.0795399306 151.834161,0.604503472 151.834161,1.24924479 L151.834161,4.77567101 L148.283839,1.23006163 C147.829858,0.775748264 147.088217,0.774344618 146.631894,1.22585069 L119.351846,28.2128134 L0,28.2128134 L0,30.5522231 L119.834406,30.5522231 C120.145492,30.5522231 120.438307,30.4315095 120.658504,30.2134766 L147.451776,3.70749653 L152.177575,8.42655382 C152.513492,8.76296094 153.013854,8.86308767 153.454248,8.68061372 C153.893236,8.49860764 154.176681,8.0747066 154.176681,7.59980642 L154.176681,2.41894965 L159.533555,2.41894965 L159.533555,12.682408 C159.533555,12.9935495 159.654429,13.2864436 159.874157,13.5072839 L174.507878,28.2128134 L167.767512,28.2128134 C167.121445,28.2128134 166.596252,28.737309 166.596252,29.3825182 L166.596252,65.0355903 L128.453941,65.0355903 L128.453941,67.375 L167.767512,67.375 C168.413579,67.375 168.938772,66.8505043 168.938772,66.2052951 L168.938772,30.5522231 L177.323587,30.5522231 C177.797713,30.5522231 178.222646,30.2691545 178.404894,29.8316849 C178.58761,29.3942153 178.489224,28.8940495 178.154244,28.5581102" id="Fill-16" fill="#144650" mask="url(#mask-2)"></path>
                    </g>
                </g>
            </g>
        </g>
    </g>
</svg>